<svg xmlns="http://www.w3.org/2000/svg" xmlns:xlink="http://www.w3.org/1999/xlink" width="500" zoomAndPan="magnify" viewBox="0 0 375 374.999991" height="500" preserveAspectRatio="xMidYMid meet" version="1.0"><defs><g/></defs><path fill="#5b8dae" d="M 119.214844 158.636719 C 121.097656 163.085938 123.382812 167.308594 126.054688 171.28125 C 113.699219 156.394531 106.898438 137.257812 107.492188 117.367188 C 110.019531 56.960938 179.261719 27.519531 224.433594 65.082031 C 223.988281 64.792969 223.269531 64.296875 221.480469 63.234375 C 205.046875 53.289062 183.75 51.835938 165.539062 57.808594 C 122.761719 71.667969 102.316406 118.59375 119.214844 158.636719 " fill-opacity="1" fill-rule="nonzero"/><path fill="#5b8dae" d="M 240.085938 182.019531 C 225.394531 194.21875 206.527344 201.023438 186.851562 200.605469 C 126.210938 198.535156 96.097656 129.160156 133.894531 83.632812 C 133.605469 84.082031 133.109375 84.800781 132.050781 86.589844 C 128.824219 92.074219 126.304688 98.210938 124.792969 104.683594 C 111.300781 171.003906 184.511719 218.890625 240.085938 182.023438 C 240.085938 182.023438 240.085938 182.019531 240.085938 182.019531 " fill-opacity="1" fill-rule="nonzero"/><path fill="#5b8dae" d="M 178.683594 44.496094 C 163.792969 44.460938 149.113281 48.945312 136.796875 57.242188 C 136.792969 57.242188 136.792969 57.242188 136.792969 57.242188 C 161.5625 36.492188 199.648438 31.503906 227.835938 50.554688 C 263.695312 74.527344 269.96875 123.585938 242.984375 155.628906 C 243.273438 155.183594 243.769531 154.464844 244.832031 152.675781 C 248.054688 147.199219 250.582031 141.035156 252.085938 134.578125 C 252.085938 134.578125 252.085938 134.574219 252.085938 134.574219 C 252.15625 134.285156 252.222656 133.992188 252.289062 133.703125 C 252.289062 133.703125 252.285156 133.703125 252.289062 133.703125 C 261.828125 87.273438 224.917969 44.238281 178.683594 44.496094 " fill-opacity="1" fill-rule="nonzero"/><path fill="#5b8dae" d="M 269.421875 119.632812 C 268.828125 180.574219 198.839844 212.667969 152.445312 174.179688 C 152.890625 174.472656 153.609375 174.964844 155.398438 176.027344 C 160.886719 179.253906 167.019531 181.773438 173.496094 183.285156 C 239.808594 196.773438 287.6875 123.558594 250.824219 67.984375 C 262.722656 82.242188 269.496094 100.824219 269.421875 119.632812 " fill-opacity="1" fill-rule="nonzero"/><g fill="#5b8dae" fill-opacity="1"><g transform="translate(23.22814, 273.224071)"><g><path d="M 28.15625 -5.296875 C 28.15625 -3.992188 28.207031 -2.957031 28.3125 -2.1875 C 28.414062 -1.425781 28.664062 -0.695312 29.0625 0 L 22.140625 0 C 21.773438 -0.695312 21.53125 -1.425781 21.40625 -2.1875 C 21.289062 -2.957031 21.234375 -3.992188 21.234375 -5.296875 L 21.234375 -7.421875 C 21.234375 -8.660156 20.835938 -9.648438 20.046875 -10.390625 C 19.265625 -11.128906 18.195312 -11.5 16.84375 -11.5 L 9.28125 -11.5 L 9.28125 0 L 2.359375 0 L 2.359375 -31.6875 L 16.03125 -31.6875 C 18.800781 -31.6875 21.050781 -31.265625 22.78125 -30.421875 C 24.519531 -29.578125 25.796875 -28.4375 26.609375 -27 C 27.429688 -25.5625 27.84375 -23.941406 27.84375 -22.140625 C 27.84375 -20.140625 27.394531 -18.554688 26.5 -17.390625 C 25.613281 -16.234375 24.597656 -15.3125 23.453125 -14.625 C 25.203125 -13.8125 26.421875 -12.84375 27.109375 -11.71875 C 27.804688 -10.601562 28.15625 -9.25 28.15625 -7.65625 Z M 15.75 -16.921875 C 17.59375 -16.921875 18.875 -17.304688 19.59375 -18.078125 C 20.320312 -18.847656 20.6875 -19.988281 20.6875 -21.5 C 20.6875 -22.914062 20.269531 -23.96875 19.4375 -24.65625 C 18.613281 -25.351562 17.429688 -25.703125 15.890625 -25.703125 L 9.28125 -25.703125 L 9.28125 -16.921875 Z M 15.75 -16.921875 "/></g></g></g><g fill="#5b8dae" fill-opacity="1"><g transform="translate(53.509337, 273.224071)"><g><path d="M 24.078125 -10.90625 C 24.078125 -10.695312 24.078125 -10.492188 24.078125 -10.296875 C 24.078125 -10.097656 24.0625 -9.894531 24.03125 -9.6875 L 7.609375 -9.6875 C 7.847656 -7.875 8.429688 -6.566406 9.359375 -5.765625 C 10.296875 -4.972656 11.566406 -4.578125 13.171875 -4.578125 C 14.410156 -4.578125 15.390625 -4.769531 16.109375 -5.15625 C 16.835938 -5.550781 17.367188 -6.082031 17.703125 -6.75 L 23.453125 -6.75 C 22.085938 -2.039062 18.539062 0.3125 12.8125 0.3125 C 11.476562 0.3125 10.132812 0.09375 8.78125 -0.34375 C 7.425781 -0.78125 6.171875 -1.472656 5.015625 -2.421875 C 3.867188 -3.367188 2.945312 -4.597656 2.25 -6.109375 C 1.5625 -7.617188 1.21875 -9.460938 1.21875 -11.640625 C 1.21875 -13.835938 1.5625 -15.707031 2.25 -17.25 C 2.945312 -18.789062 3.863281 -20.039062 5 -21 C 6.132812 -21.96875 7.382812 -22.671875 8.75 -23.109375 C 10.125 -23.546875 11.492188 -23.765625 12.859375 -23.765625 C 14.816406 -23.765625 16.644531 -23.347656 18.34375 -22.515625 C 20.050781 -21.691406 21.429688 -20.34375 22.484375 -18.46875 C 23.546875 -16.59375 24.078125 -14.070312 24.078125 -10.90625 Z M 7.65625 -13.765625 L 17.796875 -13.765625 C 17.765625 -15.296875 17.320312 -16.53125 16.46875 -17.46875 C 15.625 -18.40625 14.421875 -18.875 12.859375 -18.875 C 9.867188 -18.875 8.132812 -17.171875 7.65625 -13.765625 Z M 7.65625 -13.765625 "/></g></g></g><g fill="#5b8dae" fill-opacity="1"><g transform="translate(78.81156, 273.224071)"><g><path d="M 17.109375 0 L 9.828125 0 L 0.765625 -23.53125 L 7.375 -23.53125 L 13.484375 -6.609375 L 19.5625 -23.53125 L 26.15625 -23.53125 Z M 17.109375 0 "/></g></g></g><g fill="#5b8dae" fill-opacity="1"><g transform="translate(105.743269, 273.224071)"><g><path d="M 2.359375 -32.09375 L 8.96875 -32.09375 L 8.96875 -27.0625 L 2.359375 -27.0625 Z M 2.359375 -23.53125 L 8.96875 -23.53125 L 8.96875 0 L 2.359375 0 Z M 2.359375 -23.53125 "/></g></g></g><g fill="#5b8dae" fill-opacity="1"><g transform="translate(117.059118, 273.224071)"><g><path d="M 15.4375 -16.25 C 15.164062 -17.21875 14.695312 -17.894531 14.03125 -18.28125 C 13.363281 -18.675781 12.488281 -18.875 11.40625 -18.875 C 10.382812 -18.875 9.546875 -18.675781 8.890625 -18.28125 C 8.242188 -17.894531 7.921875 -17.320312 7.921875 -16.5625 C 7.921875 -15.445312 8.75 -14.707031 10.40625 -14.34375 L 14.625 -13.40625 C 16.039062 -13.101562 17.289062 -12.757812 18.375 -12.375 C 19.457031 -12 20.304688 -11.410156 20.921875 -10.609375 C 21.546875 -9.816406 21.859375 -8.601562 21.859375 -6.96875 C 21.859375 -5.3125 21.40625 -3.945312 20.5 -2.875 C 19.59375 -1.800781 18.347656 -1 16.765625 -0.46875 C 15.179688 0.0507812 13.394531 0.3125 11.40625 0.3125 C 8.382812 0.3125 5.976562 -0.34375 4.1875 -1.65625 C 2.394531 -2.96875 1.332031 -4.921875 1 -7.515625 L 7.0625 -7.515625 C 7.539062 -5.554688 9.003906 -4.578125 11.453125 -4.578125 C 12.773438 -4.578125 13.738281 -4.804688 14.34375 -5.265625 C 14.945312 -5.734375 15.25 -6.332031 15.25 -7.0625 C 15.25 -7.664062 15.050781 -8.125 14.65625 -8.4375 C 14.269531 -8.757812 13.640625 -9.007812 12.765625 -9.1875 L 8.96875 -10 C 6.3125 -10.601562 4.445312 -11.476562 3.375 -12.625 C 2.300781 -13.769531 1.765625 -15.144531 1.765625 -16.75 C 1.765625 -18.945312 2.609375 -20.664062 4.296875 -21.90625 C 5.984375 -23.144531 8.335938 -23.765625 11.359375 -23.765625 C 14.492188 -23.765625 16.847656 -23.066406 18.421875 -21.671875 C 19.992188 -20.285156 20.972656 -18.476562 21.359375 -16.25 Z M 15.4375 -16.25 "/></g></g></g><g fill="#5b8dae" fill-opacity="1"><g transform="translate(139.917118, 273.224071)"><g><path d="M 24.078125 -10.90625 C 24.078125 -10.695312 24.078125 -10.492188 24.078125 -10.296875 C 24.078125 -10.097656 24.0625 -9.894531 24.03125 -9.6875 L 7.609375 -9.6875 C 7.847656 -7.875 8.429688 -6.566406 9.359375 -5.765625 C 10.296875 -4.972656 11.566406 -4.578125 13.171875 -4.578125 C 14.410156 -4.578125 15.390625 -4.769531 16.109375 -5.15625 C 16.835938 -5.550781 17.367188 -6.082031 17.703125 -6.75 L 23.453125 -6.75 C 22.085938 -2.039062 18.539062 0.3125 12.8125 0.3125 C 11.476562 0.3125 10.132812 0.09375 8.78125 -0.34375 C 7.425781 -0.78125 6.171875 -1.472656 5.015625 -2.421875 C 3.867188 -3.367188 2.945312 -4.597656 2.25 -6.109375 C 1.5625 -7.617188 1.21875 -9.460938 1.21875 -11.640625 C 1.21875 -13.835938 1.5625 -15.707031 2.25 -17.25 C 2.945312 -18.789062 3.863281 -20.039062 5 -21 C 6.132812 -21.96875 7.382812 -22.671875 8.75 -23.109375 C 10.125 -23.546875 11.492188 -23.765625 12.859375 -23.765625 C 14.816406 -23.765625 16.644531 -23.347656 18.34375 -22.515625 C 20.050781 -21.691406 21.429688 -20.34375 22.484375 -18.46875 C 23.546875 -16.59375 24.078125 -14.070312 24.078125 -10.90625 Z M 7.65625 -13.765625 L 17.796875 -13.765625 C 17.765625 -15.296875 17.320312 -16.53125 16.46875 -17.46875 C 15.625 -18.40625 14.421875 -18.875 12.859375 -18.875 C 9.867188 -18.875 8.132812 -17.171875 7.65625 -13.765625 Z M 7.65625 -13.765625 "/></g></g></g><g fill="#5b8dae" fill-opacity="1"><g transform="translate(165.21934, 273.224071)"><g><path d="M 23.3125 -25.703125 L 9.28125 -25.703125 L 9.28125 -18.421875 L 20.875 -18.421875 L 20.875 -12.859375 L 9.28125 -12.859375 L 9.28125 0 L 2.359375 0 L 2.359375 -31.6875 L 23.3125 -31.6875 Z M 23.3125 -25.703125 "/></g></g></g><g fill="#5b8dae" fill-opacity="1"><g transform="translate(189.887871, 273.224071)"><g><path d="M 22.859375 -6.109375 C 22.859375 -4.785156 23.429688 -4.078125 24.578125 -3.984375 L 24.578125 -0.21875 C 24.179688 -0.0390625 23.800781 0.0664062 23.4375 0.109375 C 23.082031 0.160156 22.664062 0.1875 22.1875 0.1875 C 20.726562 0.1875 19.492188 -0.117188 18.484375 -0.734375 C 17.472656 -1.359375 16.96875 -2.304688 16.96875 -3.578125 L 16.96875 -3.75 C 16.882812 -3.601562 16.691406 -3.316406 16.390625 -2.890625 C 16.085938 -2.472656 15.640625 -2.015625 15.046875 -1.515625 C 14.460938 -1.015625 13.691406 -0.582031 12.734375 -0.21875 C 11.785156 0.132812 10.617188 0.3125 9.234375 0.3125 C 7.878906 0.3125 6.585938 0.0703125 5.359375 -0.40625 C 4.140625 -0.882812 3.144531 -1.660156 2.375 -2.734375 C 1.601562 -3.804688 1.21875 -5.203125 1.21875 -6.921875 C 1.21875 -8.253906 1.46875 -9.332031 1.96875 -10.15625 C 2.46875 -10.988281 3.128906 -11.644531 3.953125 -12.125 C 4.785156 -12.613281 5.710938 -12.992188 6.734375 -13.265625 C 7.765625 -13.535156 8.820312 -13.757812 9.90625 -13.9375 C 11.207031 -14.175781 12.421875 -14.382812 13.546875 -14.5625 C 14.679688 -14.75 15.582031 -15.039062 16.25 -15.4375 L 16.25 -15.484375 C 16.25 -16.503906 16.050781 -17.253906 15.65625 -17.734375 C 15.269531 -18.222656 14.789062 -18.539062 14.21875 -18.6875 C 13.644531 -18.84375 13.082031 -18.921875 12.53125 -18.921875 C 11.601562 -18.921875 10.785156 -18.742188 10.078125 -18.390625 C 9.367188 -18.046875 8.9375 -17.347656 8.78125 -16.296875 L 2.53125 -16.296875 C 2.988281 -21.273438 6.335938 -23.765625 12.578125 -23.765625 C 16.296875 -23.765625 18.9375 -22.988281 20.5 -21.4375 C 22.070312 -19.882812 22.859375 -17.367188 22.859375 -13.890625 Z M 16.25 -7.421875 L 16.25 -11.59375 C 15.40625 -11.164062 14.566406 -10.867188 13.734375 -10.703125 C 12.910156 -10.535156 11.96875 -10.332031 10.90625 -10.09375 C 9.789062 -9.820312 9 -9.457031 8.53125 -9 C 8.0625 -8.550781 7.828125 -7.953125 7.828125 -7.203125 C 7.828125 -6.472656 8.082031 -5.820312 8.59375 -5.25 C 9.113281 -4.675781 9.929688 -4.390625 11.046875 -4.390625 C 12.097656 -4.390625 12.976562 -4.582031 13.6875 -4.96875 C 14.394531 -5.363281 14.960938 -5.800781 15.390625 -6.28125 C 15.816406 -6.769531 16.101562 -7.148438 16.25 -7.421875 Z M 16.25 -7.421875 "/></g></g></g><g fill="#5b8dae" fill-opacity="1"><g transform="translate(215.235366, 273.224071)"><g><path d="M 12.859375 -5.03125 C 14.242188 -5.03125 15.257812 -5.351562 15.90625 -6 C 16.5625 -6.644531 17.023438 -7.453125 17.296875 -8.421875 L 23.21875 -8.421875 C 22.945312 -6.671875 22.441406 -5.226562 21.703125 -4.09375 C 20.960938 -2.96875 20.09375 -2.078125 19.09375 -1.421875 C 18.101562 -0.773438 17.0625 -0.320312 15.96875 -0.0625 C 14.882812 0.1875 13.832031 0.3125 12.8125 0.3125 C 11.445312 0.3125 10.085938 0.101562 8.734375 -0.3125 C 7.378906 -0.738281 6.132812 -1.425781 5 -2.375 C 3.863281 -3.320312 2.945312 -4.566406 2.25 -6.109375 C 1.5625 -7.648438 1.21875 -9.519531 1.21875 -11.71875 C 1.21875 -13.925781 1.554688 -15.796875 2.234375 -17.328125 C 2.921875 -18.867188 3.828125 -20.109375 4.953125 -21.046875 C 6.085938 -21.984375 7.332031 -22.671875 8.6875 -23.109375 C 10.050781 -23.546875 11.410156 -23.765625 12.765625 -23.765625 C 14.179688 -23.765625 15.597656 -23.53125 17.015625 -23.0625 C 18.429688 -22.59375 19.691406 -21.742188 20.796875 -20.515625 C 21.898438 -19.296875 22.648438 -17.539062 23.046875 -15.25 L 16.96875 -15.25 C 16.757812 -16.1875 16.351562 -16.945312 15.75 -17.53125 C 15.144531 -18.125 14.164062 -18.421875 12.8125 -18.421875 C 11.175781 -18.421875 9.898438 -17.835938 8.984375 -16.671875 C 8.066406 -15.515625 7.609375 -13.863281 7.609375 -11.71875 C 7.609375 -9.519531 8.070312 -7.851562 9 -6.71875 C 9.9375 -5.59375 11.222656 -5.03125 12.859375 -5.03125 Z M 12.859375 -5.03125 "/></g></g></g><g fill="#5b8dae" fill-opacity="1"><g transform="translate(239.813381, 273.224071)"><g><path d="M 24.078125 -10.90625 C 24.078125 -10.695312 24.078125 -10.492188 24.078125 -10.296875 C 24.078125 -10.097656 24.0625 -9.894531 24.03125 -9.6875 L 7.609375 -9.6875 C 7.847656 -7.875 8.429688 -6.566406 9.359375 -5.765625 C 10.296875 -4.972656 11.566406 -4.578125 13.171875 -4.578125 C 14.410156 -4.578125 15.390625 -4.769531 16.109375 -5.15625 C 16.835938 -5.550781 17.367188 -6.082031 17.703125 -6.75 L 23.453125 -6.75 C 22.085938 -2.039062 18.539062 0.3125 12.8125 0.3125 C 11.476562 0.3125 10.132812 0.09375 8.78125 -0.34375 C 7.425781 -0.78125 6.171875 -1.472656 5.015625 -2.421875 C 3.867188 -3.367188 2.945312 -4.597656 2.25 -6.109375 C 1.5625 -7.617188 1.21875 -9.460938 1.21875 -11.640625 C 1.21875 -13.835938 1.5625 -15.707031 2.25 -17.25 C 2.945312 -18.789062 3.863281 -20.039062 5 -21 C 6.132812 -21.96875 7.382812 -22.671875 8.75 -23.109375 C 10.125 -23.546875 11.492188 -23.765625 12.859375 -23.765625 C 14.816406 -23.765625 16.644531 -23.347656 18.34375 -22.515625 C 20.050781 -21.691406 21.429688 -20.34375 22.484375 -18.46875 C 23.546875 -16.59375 24.078125 -14.070312 24.078125 -10.90625 Z M 7.65625 -13.765625 L 17.796875 -13.765625 C 17.765625 -15.296875 17.320312 -16.53125 16.46875 -17.46875 C 15.625 -18.40625 14.421875 -18.875 12.859375 -18.875 C 9.867188 -18.875 8.132812 -17.171875 7.65625 -13.765625 Z M 7.65625 -13.765625 "/></g></g></g><g fill="#5b8dae" fill-opacity="1"><g transform="translate(265.115604, 273.224071)"><g><path d="M 24.265625 0 L 22.21875 -5.9375 L 10.5 -5.9375 L 8.46875 0 L 1 0 L 13.265625 -31.6875 L 19.46875 -31.6875 L 31.6875 0 Z M 12.21875 -11 L 20.5 -11 L 16.34375 -23.125 Z M 12.21875 -11 "/></g></g></g><g fill="#5b8dae" fill-opacity="1"><g transform="translate(297.795739, 273.224071)"><g><path d="M 15.390625 -23.765625 C 16.410156 -23.765625 17.515625 -23.546875 18.703125 -23.109375 C 19.898438 -22.671875 21.035156 -21.972656 22.109375 -21.015625 C 23.179688 -20.066406 24.054688 -18.832031 24.734375 -17.3125 C 25.410156 -15.789062 25.75 -13.941406 25.75 -11.765625 C 25.75 -9.566406 25.410156 -7.695312 24.734375 -6.15625 C 24.054688 -4.613281 23.179688 -3.367188 22.109375 -2.421875 C 21.035156 -1.472656 19.890625 -0.78125 18.671875 -0.34375 C 17.453125 0.09375 16.3125 0.3125 15.25 0.3125 C 13.738281 0.3125 12.523438 0.0664062 11.609375 -0.421875 C 10.691406 -0.921875 10.019531 -1.441406 9.59375 -1.984375 C 9.175781 -2.535156 8.96875 -2.882812 8.96875 -3.03125 L 8.96875 8.59375 L 2.359375 8.59375 L 2.359375 -23.53125 L 8.96875 -23.53125 L 8.96875 -20.59375 C 9.238281 -21.050781 9.664062 -21.519531 10.25 -22 C 10.84375 -22.476562 11.578125 -22.890625 12.453125 -23.234375 C 13.328125 -23.585938 14.304688 -23.765625 15.390625 -23.765625 Z M 13.890625 -5.03125 C 14.859375 -5.03125 15.753906 -5.257812 16.578125 -5.71875 C 17.410156 -6.1875 18.082031 -6.921875 18.59375 -7.921875 C 19.113281 -8.921875 19.375 -10.203125 19.375 -11.765625 C 19.375 -13.335938 19.113281 -14.613281 18.59375 -15.59375 C 18.082031 -16.570312 17.410156 -17.285156 16.578125 -17.734375 C 15.753906 -18.191406 14.859375 -18.421875 13.890625 -18.421875 C 12.441406 -18.421875 11.210938 -17.875 10.203125 -16.78125 C 9.191406 -15.695312 8.6875 -14.023438 8.6875 -11.765625 C 8.6875 -9.472656 9.191406 -7.773438 10.203125 -6.671875 C 11.210938 -5.578125 12.441406 -5.03125 13.890625 -5.03125 Z M 13.890625 -5.03125 "/></g></g></g><g fill="#5b8dae" fill-opacity="1"><g transform="translate(324.772706, 273.224071)"><g><path d="M 15.390625 -23.765625 C 16.410156 -23.765625 17.515625 -23.546875 18.703125 -23.109375 C 19.898438 -22.671875 21.035156 -21.972656 22.109375 -21.015625 C 23.179688 -20.066406 24.054688 -18.832031 24.734375 -17.3125 C 25.410156 -15.789062 25.75 -13.941406 25.75 -11.765625 C 25.75 -9.566406 25.410156 -7.695312 24.734375 -6.15625 C 24.054688 -4.613281 23.179688 -3.367188 22.109375 -2.421875 C 21.035156 -1.472656 19.890625 -0.78125 18.671875 -0.34375 C 17.453125 0.09375 16.3125 0.3125 15.25 0.3125 C 13.738281 0.3125 12.523438 0.0664062 11.609375 -0.421875 C 10.691406 -0.921875 10.019531 -1.441406 9.59375 -1.984375 C 9.175781 -2.535156 8.96875 -2.882812 8.96875 -3.03125 L 8.96875 8.59375 L 2.359375 8.59375 L 2.359375 -23.53125 L 8.96875 -23.53125 L 8.96875 -20.59375 C 9.238281 -21.050781 9.664062 -21.519531 10.25 -22 C 10.84375 -22.476562 11.578125 -22.890625 12.453125 -23.234375 C 13.328125 -23.585938 14.304688 -23.765625 15.390625 -23.765625 Z M 13.890625 -5.03125 C 14.859375 -5.03125 15.753906 -5.257812 16.578125 -5.71875 C 17.410156 -6.1875 18.082031 -6.921875 18.59375 -7.921875 C 19.113281 -8.921875 19.375 -10.203125 19.375 -11.765625 C 19.375 -13.335938 19.113281 -14.613281 18.59375 -15.59375 C 18.082031 -16.570312 17.410156 -17.285156 16.578125 -17.734375 C 15.753906 -18.191406 14.859375 -18.421875 13.890625 -18.421875 C 12.441406 -18.421875 11.210938 -17.875 10.203125 -16.78125 C 9.191406 -15.695312 8.6875 -14.023438 8.6875 -11.765625 C 8.6875 -9.472656 9.191406 -7.773438 10.203125 -6.671875 C 11.210938 -5.578125 12.441406 -5.03125 13.890625 -5.03125 Z M 13.890625 -5.03125 "/></g></g></g><g fill="#97b49a" fill-opacity="1"><g transform="translate(50.11123, 308.413615)"><g><path d="M 5.328125 -0.984375 C 6.085938 -0.984375 6.695312 -1.132812 7.15625 -1.4375 C 7.613281 -1.75 7.941406 -2.164062 8.140625 -2.6875 L 9.421875 -2.6875 C 9.285156 -2.082031 9.023438 -1.566406 8.640625 -1.140625 C 8.253906 -0.722656 7.773438 -0.40625 7.203125 -0.1875 C 6.640625 0.03125 6.007812 0.140625 5.3125 0.140625 C 4.425781 0.140625 3.628906 -0.0625 2.921875 -0.46875 C 2.210938 -0.875 1.65625 -1.476562 1.25 -2.28125 C 0.851562 -3.082031 0.65625 -4.085938 0.65625 -5.296875 C 0.65625 -6.503906 0.851562 -7.507812 1.25 -8.3125 C 1.65625 -9.125 2.210938 -9.726562 2.921875 -10.125 C 3.628906 -10.53125 4.425781 -10.734375 5.3125 -10.734375 C 6.34375 -10.734375 7.226562 -10.488281 7.96875 -10 C 8.71875 -9.519531 9.191406 -8.828125 9.390625 -7.921875 L 8.09375 -7.921875 C 7.90625 -8.453125 7.582031 -8.867188 7.125 -9.171875 C 6.675781 -9.472656 6.078125 -9.625 5.328125 -9.625 C 4.671875 -9.625 4.085938 -9.460938 3.578125 -9.140625 C 3.066406 -8.828125 2.664062 -8.347656 2.375 -7.703125 C 2.09375 -7.066406 1.953125 -6.265625 1.953125 -5.296875 C 1.953125 -4.335938 2.09375 -3.535156 2.375 -2.890625 C 2.664062 -2.253906 3.066406 -1.773438 3.578125 -1.453125 C 4.085938 -1.140625 4.671875 -0.984375 5.328125 -0.984375 Z M 5.328125 -0.984375 "/></g></g></g><g fill="#97b49a" fill-opacity="1"><g transform="translate(61.88481, 308.413615)"><g><path d="M 5.421875 -10.734375 C 6.347656 -10.734375 7.171875 -10.53125 7.890625 -10.125 C 8.609375 -9.71875 9.171875 -9.109375 9.578125 -8.296875 C 9.984375 -7.492188 10.1875 -6.492188 10.1875 -5.296875 C 10.1875 -4.109375 9.984375 -3.109375 9.578125 -2.296875 C 9.171875 -1.492188 8.609375 -0.882812 7.890625 -0.46875 C 7.171875 -0.0625 6.347656 0.140625 5.421875 0.140625 C 4.492188 0.140625 3.664062 -0.0625 2.9375 -0.46875 C 2.21875 -0.882812 1.65625 -1.492188 1.25 -2.296875 C 0.851562 -3.109375 0.65625 -4.109375 0.65625 -5.296875 C 0.65625 -6.492188 0.851562 -7.492188 1.25 -8.296875 C 1.65625 -9.109375 2.21875 -9.71875 2.9375 -10.125 C 3.664062 -10.53125 4.492188 -10.734375 5.421875 -10.734375 Z M 5.421875 -0.984375 C 6.460938 -0.984375 7.296875 -1.34375 7.921875 -2.0625 C 8.554688 -2.78125 8.875 -3.859375 8.875 -5.296875 C 8.875 -6.753906 8.554688 -7.835938 7.921875 -8.546875 C 7.296875 -9.265625 6.460938 -9.625 5.421875 -9.625 C 4.378906 -9.625 3.539062 -9.265625 2.90625 -8.546875 C 2.269531 -7.835938 1.953125 -6.753906 1.953125 -5.296875 C 1.953125 -3.859375 2.269531 -2.78125 2.90625 -2.0625 C 3.539062 -1.34375 4.378906 -0.984375 5.421875 -0.984375 Z M 5.421875 -0.984375 "/></g></g></g><g fill="#97b49a" fill-opacity="1"><g transform="translate(74.611593, 308.413615)"><g><path d="M 9.15625 -10.59375 L 9.15625 0 L 7.734375 0 L 2.1875 -8.609375 L 2.140625 -8.609375 L 2.140625 0 L 0.875 0 L 0.875 -10.59375 L 2.25 -10.59375 L 7.859375 -1.9375 L 7.890625 -1.9375 L 7.890625 -10.59375 Z M 9.15625 -10.59375 "/></g></g></g><g fill="#97b49a" fill-opacity="1"><g transform="translate(86.536476, 308.413615)"><g><path d="M 2.140625 -1.125 L 7.90625 -1.125 L 7.90625 0 L 0.875 0 L 0.875 -10.59375 L 7.75 -10.59375 L 7.75 -9.5 L 2.140625 -9.5 L 2.140625 -5.96875 L 7 -5.96875 L 7 -4.9375 L 2.140625 -4.9375 Z M 2.140625 -1.125 "/></g></g></g><g fill="#97b49a" fill-opacity="1"><g transform="translate(96.797032, 308.413615)"><g><path d="M 5.328125 -0.984375 C 6.085938 -0.984375 6.695312 -1.132812 7.15625 -1.4375 C 7.613281 -1.75 7.941406 -2.164062 8.140625 -2.6875 L 9.421875 -2.6875 C 9.285156 -2.082031 9.023438 -1.566406 8.640625 -1.140625 C 8.253906 -0.722656 7.773438 -0.40625 7.203125 -0.1875 C 6.640625 0.03125 6.007812 0.140625 5.3125 0.140625 C 4.425781 0.140625 3.628906 -0.0625 2.921875 -0.46875 C 2.210938 -0.875 1.65625 -1.476562 1.25 -2.28125 C 0.851562 -3.082031 0.65625 -4.085938 0.65625 -5.296875 C 0.65625 -6.503906 0.851562 -7.507812 1.25 -8.3125 C 1.65625 -9.125 2.210938 -9.726562 2.921875 -10.125 C 3.628906 -10.53125 4.425781 -10.734375 5.3125 -10.734375 C 6.34375 -10.734375 7.226562 -10.488281 7.96875 -10 C 8.71875 -9.519531 9.191406 -8.828125 9.390625 -7.921875 L 8.09375 -7.921875 C 7.90625 -8.453125 7.582031 -8.867188 7.125 -9.171875 C 6.675781 -9.472656 6.078125 -9.625 5.328125 -9.625 C 4.671875 -9.625 4.085938 -9.460938 3.578125 -9.140625 C 3.066406 -8.828125 2.664062 -8.347656 2.375 -7.703125 C 2.09375 -7.066406 1.953125 -6.265625 1.953125 -5.296875 C 1.953125 -4.335938 2.09375 -3.535156 2.375 -2.890625 C 2.664062 -2.253906 3.066406 -1.773438 3.578125 -1.453125 C 4.085938 -1.140625 4.671875 -0.984375 5.328125 -0.984375 Z M 5.328125 -0.984375 "/></g></g></g><g fill="#97b49a" fill-opacity="1"><g transform="translate(108.570611, 308.413615)"><g><path d="M 8.359375 -10.59375 L 8.359375 -9.5 L 5.03125 -9.5 L 5.03125 0 L 3.75 0 L 3.75 -9.5 L 0.421875 -9.5 L 0.421875 -10.59375 Z M 8.359375 -10.59375 "/></g></g></g><g fill="#97b49a" fill-opacity="1"><g transform="translate(119.254815, 308.413615)"><g><path d="M 8.59375 0 L 7.5625 -2.703125 L 2.8125 -2.703125 L 1.78125 0 L 0.421875 0 L 4.640625 -10.59375 L 5.734375 -10.59375 L 9.96875 0 Z M 3.171875 -3.671875 L 7.203125 -3.671875 L 5.1875 -8.96875 Z M 3.171875 -3.671875 "/></g></g></g><g fill="#97b49a" fill-opacity="1"><g transform="translate(131.527687, 308.413615)"><g><path d="M 0.75 2.203125 L 0.75 1.78125 C 0.988281 1.675781 1.144531 1.519531 1.21875 1.3125 C 1.300781 1.113281 1.34375 0.832031 1.34375 0.46875 L 1.34375 0 L 0.75 0 L 0.75 -1.546875 L 2.203125 -1.546875 L 2.203125 0.375 C 2.203125 0.863281 2.128906 1.238281 1.984375 1.5 C 1.847656 1.757812 1.671875 1.9375 1.453125 2.03125 C 1.242188 2.132812 1.007812 2.191406 0.75 2.203125 Z M 0.75 2.203125 "/></g></g></g><g fill="#97b49a" fill-opacity="1"><g transform="translate(136.401878, 308.413615)"><g/></g></g><g fill="#97b49a" fill-opacity="1"><g transform="translate(142.441091, 308.413615)"><g><path d="M 8.640625 -1.765625 C 8.640625 -1.273438 8.664062 -0.894531 8.71875 -0.625 C 8.769531 -0.351562 8.847656 -0.144531 8.953125 0 L 7.6875 0 C 7.59375 -0.144531 7.519531 -0.351562 7.46875 -0.625 C 7.414062 -0.894531 7.390625 -1.273438 7.390625 -1.765625 L 7.390625 -2.625 C 7.390625 -3.0625 7.300781 -3.40625 7.125 -3.65625 C 6.945312 -3.90625 6.710938 -4.078125 6.421875 -4.171875 C 6.140625 -4.273438 5.832031 -4.328125 5.5 -4.328125 L 2.140625 -4.328125 L 2.140625 0 L 0.875 0 L 0.875 -10.59375 L 5.03125 -10.59375 C 6.257812 -10.59375 7.164062 -10.316406 7.75 -9.765625 C 8.34375 -9.222656 8.640625 -8.488281 8.640625 -7.5625 C 8.640625 -6.914062 8.488281 -6.367188 8.1875 -5.921875 C 7.882812 -5.484375 7.472656 -5.148438 6.953125 -4.921875 C 7.554688 -4.742188 7.988281 -4.476562 8.25 -4.125 C 8.507812 -3.769531 8.640625 -3.28125 8.640625 -2.65625 Z M 5.203125 -5.359375 C 5.859375 -5.359375 6.378906 -5.539062 6.765625 -5.90625 C 7.160156 -6.269531 7.359375 -6.789062 7.359375 -7.46875 C 7.359375 -8.820312 6.578125 -9.5 5.015625 -9.5 L 2.140625 -9.5 L 2.140625 -5.359375 Z M 5.203125 -5.359375 "/></g></g></g><g fill="#97b49a" fill-opacity="1"><g transform="translate(153.791023, 308.413615)"><g><path d="M 2.140625 -1.125 L 7.90625 -1.125 L 7.90625 0 L 0.875 0 L 0.875 -10.59375 L 7.75 -10.59375 L 7.75 -9.5 L 2.140625 -9.5 L 2.140625 -5.96875 L 7 -5.96875 L 7 -4.9375 L 2.140625 -4.9375 Z M 2.140625 -1.125 "/></g></g></g><g fill="#97b49a" fill-opacity="1"><g transform="translate(164.051579, 308.413615)"><g><path d="M 5.328125 -0.984375 C 6.085938 -0.984375 6.695312 -1.132812 7.15625 -1.4375 C 7.613281 -1.75 7.941406 -2.164062 8.140625 -2.6875 L 9.421875 -2.6875 C 9.285156 -2.082031 9.023438 -1.566406 8.640625 -1.140625 C 8.253906 -0.722656 7.773438 -0.40625 7.203125 -0.1875 C 6.640625 0.03125 6.007812 0.140625 5.3125 0.140625 C 4.425781 0.140625 3.628906 -0.0625 2.921875 -0.46875 C 2.210938 -0.875 1.65625 -1.476562 1.25 -2.28125 C 0.851562 -3.082031 0.65625 -4.085938 0.65625 -5.296875 C 0.65625 -6.503906 0.851562 -7.507812 1.25 -8.3125 C 1.65625 -9.125 2.210938 -9.726562 2.921875 -10.125 C 3.628906 -10.53125 4.425781 -10.734375 5.3125 -10.734375 C 6.34375 -10.734375 7.226562 -10.488281 7.96875 -10 C 8.71875 -9.519531 9.191406 -8.828125 9.390625 -7.921875 L 8.09375 -7.921875 C 7.90625 -8.453125 7.582031 -8.867188 7.125 -9.171875 C 6.675781 -9.472656 6.078125 -9.625 5.328125 -9.625 C 4.671875 -9.625 4.085938 -9.460938 3.578125 -9.140625 C 3.066406 -8.828125 2.664062 -8.347656 2.375 -7.703125 C 2.09375 -7.066406 1.953125 -6.265625 1.953125 -5.296875 C 1.953125 -4.335938 2.09375 -3.535156 2.375 -2.890625 C 2.664062 -2.253906 3.066406 -1.773438 3.578125 -1.453125 C 4.085938 -1.140625 4.671875 -0.984375 5.328125 -0.984375 Z M 5.328125 -0.984375 "/></g></g></g><g fill="#97b49a" fill-opacity="1"><g transform="translate(175.825158, 308.413615)"><g><path d="M 9.03125 -4.03125 C 9.03125 -3.15625 8.863281 -2.40625 8.53125 -1.78125 C 8.195312 -1.15625 7.722656 -0.675781 7.109375 -0.34375 C 6.492188 -0.0195312 5.773438 0.140625 4.953125 0.140625 C 3.703125 0.140625 2.707031 -0.222656 1.96875 -0.953125 C 1.238281 -1.691406 0.875 -2.71875 0.875 -4.03125 L 0.875 -10.59375 L 2.140625 -10.59375 L 2.140625 -4.09375 C 2.140625 -3.101562 2.390625 -2.335938 2.890625 -1.796875 C 3.390625 -1.253906 4.078125 -0.984375 4.953125 -0.984375 C 5.828125 -0.984375 6.515625 -1.253906 7.015625 -1.796875 C 7.515625 -2.335938 7.765625 -3.101562 7.765625 -4.09375 L 7.765625 -10.59375 L 9.03125 -10.59375 Z M 9.03125 -4.03125 "/></g></g></g><g fill="#97b49a" fill-opacity="1"><g transform="translate(187.628988, 308.413615)"><g><path d="M 2.140625 -1.125 L 7.90625 -1.125 L 7.90625 0 L 0.875 0 L 0.875 -10.59375 L 7.75 -10.59375 L 7.75 -9.5 L 2.140625 -9.5 L 2.140625 -5.96875 L 7 -5.96875 L 7 -4.9375 L 2.140625 -4.9375 Z M 2.140625 -1.125 "/></g></g></g><g fill="#97b49a" fill-opacity="1"><g transform="translate(197.889544, 308.413615)"><g><path d="M 4.6875 -10.59375 C 5.945312 -10.59375 6.894531 -10.285156 7.53125 -9.671875 C 8.164062 -9.066406 8.484375 -8.234375 8.484375 -7.171875 C 8.484375 -6.128906 8.164062 -5.300781 7.53125 -4.6875 C 6.894531 -4.070312 5.945312 -3.765625 4.6875 -3.765625 L 2.140625 -3.765625 L 2.140625 0 L 0.875 0 L 0.875 -10.59375 Z M 4.703125 -4.875 C 5.503906 -4.875 6.109375 -5.070312 6.515625 -5.46875 C 6.929688 -5.875 7.140625 -6.441406 7.140625 -7.171875 C 7.140625 -7.921875 6.929688 -8.492188 6.515625 -8.890625 C 6.109375 -9.296875 5.503906 -9.5 4.703125 -9.5 L 2.140625 -9.5 L 2.140625 -4.875 Z M 4.703125 -4.875 "/></g></g></g><g fill="#97b49a" fill-opacity="1"><g transform="translate(208.755302, 308.413615)"><g><path d="M 2.140625 -1.125 L 7.90625 -1.125 L 7.90625 0 L 0.875 0 L 0.875 -10.59375 L 7.75 -10.59375 L 7.75 -9.5 L 2.140625 -9.5 L 2.140625 -5.96875 L 7 -5.96875 L 7 -4.9375 L 2.140625 -4.9375 Z M 2.140625 -1.125 "/></g></g></g><g fill="#97b49a" fill-opacity="1"><g transform="translate(219.015858, 308.413615)"><g><path d="M 8.640625 -1.765625 C 8.640625 -1.273438 8.664062 -0.894531 8.71875 -0.625 C 8.769531 -0.351562 8.847656 -0.144531 8.953125 0 L 7.6875 0 C 7.59375 -0.144531 7.519531 -0.351562 7.46875 -0.625 C 7.414062 -0.894531 7.390625 -1.273438 7.390625 -1.765625 L 7.390625 -2.625 C 7.390625 -3.0625 7.300781 -3.40625 7.125 -3.65625 C 6.945312 -3.90625 6.710938 -4.078125 6.421875 -4.171875 C 6.140625 -4.273438 5.832031 -4.328125 5.5 -4.328125 L 2.140625 -4.328125 L 2.140625 0 L 0.875 0 L 0.875 -10.59375 L 5.03125 -10.59375 C 6.257812 -10.59375 7.164062 -10.316406 7.75 -9.765625 C 8.34375 -9.222656 8.640625 -8.488281 8.640625 -7.5625 C 8.640625 -6.914062 8.488281 -6.367188 8.1875 -5.921875 C 7.882812 -5.484375 7.472656 -5.148438 6.953125 -4.921875 C 7.554688 -4.742188 7.988281 -4.476562 8.25 -4.125 C 8.507812 -3.769531 8.640625 -3.28125 8.640625 -2.65625 Z M 5.203125 -5.359375 C 5.859375 -5.359375 6.378906 -5.539062 6.765625 -5.90625 C 7.160156 -6.269531 7.359375 -6.789062 7.359375 -7.46875 C 7.359375 -8.820312 6.578125 -9.5 5.015625 -9.5 L 2.140625 -9.5 L 2.140625 -5.359375 Z M 5.203125 -5.359375 "/></g></g></g><g fill="#97b49a" fill-opacity="1"><g transform="translate(230.36579, 308.413615)"><g><path d="M 8.59375 0 L 7.5625 -2.703125 L 2.8125 -2.703125 L 1.78125 0 L 0.421875 0 L 4.640625 -10.59375 L 5.734375 -10.59375 L 9.96875 0 Z M 3.171875 -3.671875 L 7.203125 -3.671875 L 5.1875 -8.96875 Z M 3.171875 -3.671875 "/></g></g></g><g fill="#97b49a" fill-opacity="1"><g transform="translate(242.638662, 308.413615)"><g><path d="M 0.75 2.203125 L 0.75 1.78125 C 0.988281 1.675781 1.144531 1.519531 1.21875 1.3125 C 1.300781 1.113281 1.34375 0.832031 1.34375 0.46875 L 1.34375 0 L 0.75 0 L 0.75 -1.546875 L 2.203125 -1.546875 L 2.203125 0.375 C 2.203125 0.863281 2.128906 1.238281 1.984375 1.5 C 1.847656 1.757812 1.671875 1.9375 1.453125 2.03125 C 1.242188 2.132812 1.007812 2.191406 0.75 2.203125 Z M 0.75 2.203125 "/></g></g></g><g fill="#97b49a" fill-opacity="1"><g transform="translate(247.512853, 308.413615)"><g/></g></g><g fill="#97b49a" fill-opacity="1"><g transform="translate(253.552065, 308.413615)"><g><path d="M 5.390625 -5.84375 C 6.390625 -5.644531 7.164062 -5.328125 7.71875 -4.890625 C 8.28125 -4.453125 8.5625 -3.785156 8.5625 -2.890625 C 8.5625 -1.960938 8.210938 -1.222656 7.515625 -0.671875 C 6.816406 -0.128906 5.859375 0.140625 4.640625 0.140625 C 3.804688 0.140625 3.101562 0 2.53125 -0.28125 C 1.957031 -0.5625 1.515625 -0.941406 1.203125 -1.421875 C 0.890625 -1.910156 0.707031 -2.46875 0.65625 -3.09375 L 1.953125 -3.09375 C 2.023438 -2.71875 2.15625 -2.363281 2.34375 -2.03125 C 2.539062 -1.707031 2.820312 -1.441406 3.1875 -1.234375 C 3.550781 -1.035156 4.035156 -0.9375 4.640625 -0.9375 C 5.515625 -0.9375 6.171875 -1.125 6.609375 -1.5 C 7.046875 -1.875 7.265625 -2.34375 7.265625 -2.90625 C 7.265625 -3.507812 7.070312 -3.945312 6.6875 -4.21875 C 6.300781 -4.5 5.820312 -4.691406 5.25 -4.796875 L 3.703125 -5.109375 C 2.816406 -5.285156 2.117188 -5.585938 1.609375 -6.015625 C 1.109375 -6.453125 0.859375 -7.070312 0.859375 -7.875 C 0.859375 -8.40625 1 -8.890625 1.28125 -9.328125 C 1.5625 -9.765625 1.972656 -10.109375 2.515625 -10.359375 C 3.066406 -10.609375 3.738281 -10.734375 4.53125 -10.734375 C 5.65625 -10.734375 6.535156 -10.476562 7.171875 -9.96875 C 7.804688 -9.457031 8.175781 -8.773438 8.28125 -7.921875 L 7 -7.921875 C 6.90625 -8.398438 6.664062 -8.804688 6.28125 -9.140625 C 5.90625 -9.484375 5.320312 -9.65625 4.53125 -9.65625 C 3.96875 -9.65625 3.515625 -9.566406 3.171875 -9.390625 C 2.828125 -9.210938 2.570312 -8.984375 2.40625 -8.703125 C 2.25 -8.429688 2.171875 -8.144531 2.171875 -7.84375 C 2.171875 -7.40625 2.3125 -7.039062 2.59375 -6.75 C 2.882812 -6.457031 3.335938 -6.25 3.953125 -6.125 Z M 5.390625 -5.84375 "/></g></g></g><g fill="#97b49a" fill-opacity="1"><g transform="translate(264.675023, 308.413615)"><g><path d="M 5.421875 -10.734375 C 6.347656 -10.734375 7.171875 -10.53125 7.890625 -10.125 C 8.609375 -9.71875 9.171875 -9.109375 9.578125 -8.296875 C 9.984375 -7.492188 10.1875 -6.492188 10.1875 -5.296875 C 10.1875 -4.109375 9.984375 -3.109375 9.578125 -2.296875 C 9.171875 -1.492188 8.609375 -0.882812 7.890625 -0.46875 C 7.171875 -0.0625 6.347656 0.140625 5.421875 0.140625 C 4.492188 0.140625 3.664062 -0.0625 2.9375 -0.46875 C 2.21875 -0.882812 1.65625 -1.492188 1.25 -2.296875 C 0.851562 -3.109375 0.65625 -4.109375 0.65625 -5.296875 C 0.65625 -6.492188 0.851562 -7.492188 1.25 -8.296875 C 1.65625 -9.109375 2.21875 -9.71875 2.9375 -10.125 C 3.664062 -10.53125 4.492188 -10.734375 5.421875 -10.734375 Z M 5.421875 -0.984375 C 6.460938 -0.984375 7.296875 -1.34375 7.921875 -2.0625 C 8.554688 -2.78125 8.875 -3.859375 8.875 -5.296875 C 8.875 -6.753906 8.554688 -7.835938 7.921875 -8.546875 C 7.296875 -9.265625 6.460938 -9.625 5.421875 -9.625 C 4.378906 -9.625 3.539062 -9.265625 2.90625 -8.546875 C 2.269531 -7.835938 1.953125 -6.753906 1.953125 -5.296875 C 1.953125 -3.859375 2.269531 -2.78125 2.90625 -2.0625 C 3.539062 -1.34375 4.378906 -0.984375 5.421875 -0.984375 Z M 5.421875 -0.984375 "/></g></g></g><g fill="#97b49a" fill-opacity="1"><g transform="translate(277.401819, 308.413615)"><g><path d="M 9.15625 -10.59375 L 9.15625 0 L 7.734375 0 L 2.1875 -8.609375 L 2.140625 -8.609375 L 2.140625 0 L 0.875 0 L 0.875 -10.59375 L 2.25 -10.59375 L 7.859375 -1.9375 L 7.890625 -1.9375 L 7.890625 -10.59375 Z M 9.15625 -10.59375 "/></g></g></g><g fill="#97b49a" fill-opacity="1"><g transform="translate(289.326715, 308.413615)"><g><path d="M 8.640625 -1.765625 C 8.640625 -1.273438 8.664062 -0.894531 8.71875 -0.625 C 8.769531 -0.351562 8.847656 -0.144531 8.953125 0 L 7.6875 0 C 7.59375 -0.144531 7.519531 -0.351562 7.46875 -0.625 C 7.414062 -0.894531 7.390625 -1.273438 7.390625 -1.765625 L 7.390625 -2.625 C 7.390625 -3.0625 7.300781 -3.40625 7.125 -3.65625 C 6.945312 -3.90625 6.710938 -4.078125 6.421875 -4.171875 C 6.140625 -4.273438 5.832031 -4.328125 5.5 -4.328125 L 2.140625 -4.328125 L 2.140625 0 L 0.875 0 L 0.875 -10.59375 L 5.03125 -10.59375 C 6.257812 -10.59375 7.164062 -10.316406 7.75 -9.765625 C 8.34375 -9.222656 8.640625 -8.488281 8.640625 -7.5625 C 8.640625 -6.914062 8.488281 -6.367188 8.1875 -5.921875 C 7.882812 -5.484375 7.472656 -5.148438 6.953125 -4.921875 C 7.554688 -4.742188 7.988281 -4.476562 8.25 -4.125 C 8.507812 -3.769531 8.640625 -3.28125 8.640625 -2.65625 Z M 5.203125 -5.359375 C 5.859375 -5.359375 6.378906 -5.539062 6.765625 -5.90625 C 7.160156 -6.269531 7.359375 -6.789062 7.359375 -7.46875 C 7.359375 -8.820312 6.578125 -9.5 5.015625 -9.5 L 2.140625 -9.5 L 2.140625 -5.359375 Z M 5.203125 -5.359375 "/></g></g></g><g fill="#97b49a" fill-opacity="1"><g transform="translate(300.676659, 308.413615)"><g><path d="M 0.6875 -11.515625 L 1.734375 -11.515625 L 3.34375 -13.453125 L 2.015625 -13.453125 Z M 2.140625 0 L 0.875 0 L 0.875 -10.59375 L 2.140625 -10.59375 Z M 2.140625 0 "/></g></g></g><g fill="#97b49a" fill-opacity="1"><g transform="translate(305.596245, 308.413615)"><g><path d="M 2.140625 -1.125 L 7.90625 -1.125 L 7.90625 0 L 0.875 0 L 0.875 -10.59375 L 7.75 -10.59375 L 7.75 -9.5 L 2.140625 -9.5 L 2.140625 -5.96875 L 7 -5.96875 L 7 -4.9375 L 2.140625 -4.9375 Z M 2.140625 -1.125 "/></g></g></g><g fill="#97b49a" fill-opacity="1"><g transform="translate(315.856814, 308.413615)"><g><path d="M 0.75 -1.546875 L 2.203125 -1.546875 L 2.203125 0 L 0.75 0 Z M 0.75 -1.546875 "/></g></g></g><g fill="#97b49a" fill-opacity="1"><g transform="translate(320.736219, 308.413615)"><g/></g></g></svg>